<mxfile host="Electron" modified="2023-10-28T18:37:48.073Z" agent="Mozilla/5.0 (Windows NT 10.0; Win64; x64) AppleWebKit/537.36 (KHTML, like Gecko) draw.io/21.6.8 Chrome/114.0.5735.289 Electron/25.5.0 Safari/537.36" etag="A9SdEK_6KLt4WlVFjfPE" version="21.6.8" type="device">
  <diagram name="Страница — 1" id="-EePP2vCCqSzGSO3U9Yo">
    <mxGraphModel dx="1360" dy="884" grid="1" gridSize="10" guides="1" tooltips="1" connect="1" arrows="1" fold="1" page="1" pageScale="1" pageWidth="827" pageHeight="1169" math="0" shadow="0">
      <root>
        <mxCell id="0" />
        <mxCell id="1" parent="0" />
        <mxCell id="4X0uVaDFzf43fKqL_x9U-33" value="Presentation" style="shape=module;align=left;spacingLeft=20;align=center;verticalAlign=top;whiteSpace=wrap;html=1;" vertex="1" parent="1">
          <mxGeometry y="560" width="690" height="220" as="geometry" />
        </mxCell>
        <mxCell id="4X0uVaDFzf43fKqL_x9U-19" value="Application" style="shape=module;align=left;spacingLeft=20;align=center;verticalAlign=top;whiteSpace=wrap;html=1;" vertex="1" parent="1">
          <mxGeometry y="300" width="690" height="240" as="geometry" />
        </mxCell>
        <mxCell id="4X0uVaDFzf43fKqL_x9U-9" value="Data" style="shape=module;align=left;spacingLeft=20;align=center;verticalAlign=top;whiteSpace=wrap;html=1;" vertex="1" parent="1">
          <mxGeometry y="10" width="690" height="260" as="geometry" />
        </mxCell>
        <mxCell id="4X0uVaDFzf43fKqL_x9U-1" value="&lt;p style=&quot;margin:0px;margin-top:4px;text-align:center;&quot;&gt;&lt;b&gt;Product&lt;/b&gt;&lt;/p&gt;&lt;hr size=&quot;1&quot;&gt;&lt;div style=&quot;height:2px;&quot;&gt;&lt;/div&gt;" style="verticalAlign=top;align=left;overflow=fill;fontSize=12;fontFamily=Helvetica;html=1;whiteSpace=wrap;" vertex="1" parent="1">
          <mxGeometry x="40" y="40" width="140" height="60" as="geometry" />
        </mxCell>
        <mxCell id="4X0uVaDFzf43fKqL_x9U-2" value="&lt;p style=&quot;margin:0px;margin-top:4px;text-align:center;&quot;&gt;&lt;b&gt;Hard&lt;/b&gt;&lt;/p&gt;&lt;hr size=&quot;1&quot;&gt;&lt;div style=&quot;height:2px;&quot;&gt;&lt;/div&gt;" style="verticalAlign=top;align=left;overflow=fill;fontSize=12;fontFamily=Helvetica;html=1;whiteSpace=wrap;" vertex="1" parent="1">
          <mxGeometry x="240" y="40" width="140" height="60" as="geometry" />
        </mxCell>
        <mxCell id="4X0uVaDFzf43fKqL_x9U-3" value="&lt;p style=&quot;margin:0px;margin-top:4px;text-align:center;&quot;&gt;&lt;b&gt;Client&lt;/b&gt;&lt;/p&gt;&lt;hr size=&quot;1&quot;&gt;&lt;div style=&quot;height:2px;&quot;&gt;&lt;/div&gt;" style="verticalAlign=top;align=left;overflow=fill;fontSize=12;fontFamily=Helvetica;html=1;whiteSpace=wrap;" vertex="1" parent="1">
          <mxGeometry x="440" y="40" width="140" height="60" as="geometry" />
        </mxCell>
        <mxCell id="4X0uVaDFzf43fKqL_x9U-6" style="edgeStyle=orthogonalEdgeStyle;rounded=0;orthogonalLoop=1;jettySize=auto;html=1;exitX=0.5;exitY=0;exitDx=0;exitDy=0;entryX=0.5;entryY=1;entryDx=0;entryDy=0;" edge="1" parent="1" source="4X0uVaDFzf43fKqL_x9U-4" target="4X0uVaDFzf43fKqL_x9U-1">
          <mxGeometry relative="1" as="geometry" />
        </mxCell>
        <mxCell id="4X0uVaDFzf43fKqL_x9U-7" style="edgeStyle=orthogonalEdgeStyle;rounded=0;orthogonalLoop=1;jettySize=auto;html=1;exitX=0.5;exitY=0;exitDx=0;exitDy=0;entryX=0.5;entryY=1;entryDx=0;entryDy=0;" edge="1" parent="1" source="4X0uVaDFzf43fKqL_x9U-4" target="4X0uVaDFzf43fKqL_x9U-2">
          <mxGeometry relative="1" as="geometry" />
        </mxCell>
        <mxCell id="4X0uVaDFzf43fKqL_x9U-8" style="edgeStyle=orthogonalEdgeStyle;rounded=0;orthogonalLoop=1;jettySize=auto;html=1;exitX=0.5;exitY=0;exitDx=0;exitDy=0;entryX=0.5;entryY=1;entryDx=0;entryDy=0;" edge="1" parent="1" source="4X0uVaDFzf43fKqL_x9U-4" target="4X0uVaDFzf43fKqL_x9U-3">
          <mxGeometry relative="1" as="geometry" />
        </mxCell>
        <mxCell id="4X0uVaDFzf43fKqL_x9U-4" value="&lt;p style=&quot;margin:0px;margin-top:4px;text-align:center;&quot;&gt;&lt;b&gt;Order&lt;/b&gt;&lt;/p&gt;&lt;hr size=&quot;1&quot;&gt;&lt;div style=&quot;height:2px;&quot;&gt;&lt;/div&gt;" style="verticalAlign=top;align=left;overflow=fill;fontSize=12;fontFamily=Helvetica;html=1;whiteSpace=wrap;" vertex="1" parent="1">
          <mxGeometry x="40" y="190" width="140" height="60" as="geometry" />
        </mxCell>
        <mxCell id="4X0uVaDFzf43fKqL_x9U-11" style="edgeStyle=orthogonalEdgeStyle;rounded=0;orthogonalLoop=1;jettySize=auto;html=1;exitX=0.5;exitY=0;exitDx=0;exitDy=0;entryX=0.5;entryY=1;entryDx=0;entryDy=0;" edge="1" parent="1" source="4X0uVaDFzf43fKqL_x9U-10" target="4X0uVaDFzf43fKqL_x9U-4">
          <mxGeometry relative="1" as="geometry" />
        </mxCell>
        <mxCell id="4X0uVaDFzf43fKqL_x9U-10" value="&lt;p style=&quot;margin:0px;margin-top:4px;text-align:center;&quot;&gt;&lt;b&gt;CheckEmptyHardService&lt;/b&gt;&lt;/p&gt;&lt;hr size=&quot;1&quot;&gt;&lt;div style=&quot;height:2px;&quot;&gt;&lt;/div&gt;" style="verticalAlign=top;align=left;overflow=fill;fontSize=12;fontFamily=Helvetica;html=1;whiteSpace=wrap;" vertex="1" parent="1">
          <mxGeometry x="30" y="360" width="160" height="60" as="geometry" />
        </mxCell>
        <mxCell id="4X0uVaDFzf43fKqL_x9U-13" style="edgeStyle=orthogonalEdgeStyle;rounded=0;orthogonalLoop=1;jettySize=auto;html=1;exitX=0.5;exitY=0;exitDx=0;exitDy=0;entryX=0.75;entryY=1;entryDx=0;entryDy=0;" edge="1" parent="1" source="4X0uVaDFzf43fKqL_x9U-12" target="4X0uVaDFzf43fKqL_x9U-3">
          <mxGeometry relative="1" as="geometry" />
        </mxCell>
        <mxCell id="4X0uVaDFzf43fKqL_x9U-14" style="edgeStyle=orthogonalEdgeStyle;rounded=0;orthogonalLoop=1;jettySize=auto;html=1;exitX=0.25;exitY=0;exitDx=0;exitDy=0;entryX=0.75;entryY=1;entryDx=0;entryDy=0;" edge="1" parent="1" source="4X0uVaDFzf43fKqL_x9U-12" target="4X0uVaDFzf43fKqL_x9U-1">
          <mxGeometry relative="1" as="geometry">
            <Array as="points">
              <mxPoint x="320" y="170" />
              <mxPoint x="145" y="170" />
            </Array>
          </mxGeometry>
        </mxCell>
        <mxCell id="4X0uVaDFzf43fKqL_x9U-16" style="edgeStyle=orthogonalEdgeStyle;rounded=0;orthogonalLoop=1;jettySize=auto;html=1;exitX=0.25;exitY=0;exitDx=0;exitDy=0;entryX=1;entryY=0.25;entryDx=0;entryDy=0;" edge="1" parent="1" source="4X0uVaDFzf43fKqL_x9U-12" target="4X0uVaDFzf43fKqL_x9U-4">
          <mxGeometry relative="1" as="geometry" />
        </mxCell>
        <mxCell id="4X0uVaDFzf43fKqL_x9U-17" style="edgeStyle=orthogonalEdgeStyle;rounded=0;orthogonalLoop=1;jettySize=auto;html=1;exitX=0.25;exitY=0;exitDx=0;exitDy=0;entryX=0.75;entryY=1;entryDx=0;entryDy=0;" edge="1" parent="1" source="4X0uVaDFzf43fKqL_x9U-12" target="4X0uVaDFzf43fKqL_x9U-2">
          <mxGeometry relative="1" as="geometry">
            <Array as="points">
              <mxPoint x="320" y="170" />
              <mxPoint x="345" y="170" />
            </Array>
          </mxGeometry>
        </mxCell>
        <mxCell id="4X0uVaDFzf43fKqL_x9U-18" style="edgeStyle=orthogonalEdgeStyle;rounded=0;orthogonalLoop=1;jettySize=auto;html=1;exitX=0;exitY=0.25;exitDx=0;exitDy=0;entryX=1;entryY=0.25;entryDx=0;entryDy=0;" edge="1" parent="1" source="4X0uVaDFzf43fKqL_x9U-12" target="4X0uVaDFzf43fKqL_x9U-10">
          <mxGeometry relative="1" as="geometry" />
        </mxCell>
        <mxCell id="4X0uVaDFzf43fKqL_x9U-12" value="&lt;p style=&quot;margin:0px;margin-top:4px;text-align:center;&quot;&gt;&lt;br&gt;&lt;b&gt;OrderService&lt;/b&gt;&lt;/p&gt;" style="verticalAlign=top;align=left;overflow=fill;fontSize=12;fontFamily=Helvetica;html=1;whiteSpace=wrap;" vertex="1" parent="1">
          <mxGeometry x="280" y="360" width="160" height="60" as="geometry" />
        </mxCell>
        <mxCell id="4X0uVaDFzf43fKqL_x9U-22" style="edgeStyle=orthogonalEdgeStyle;rounded=0;orthogonalLoop=1;jettySize=auto;html=1;exitX=1;exitY=0.25;exitDx=0;exitDy=0;entryX=1;entryY=0.75;entryDx=0;entryDy=0;" edge="1" parent="1" source="4X0uVaDFzf43fKqL_x9U-21" target="4X0uVaDFzf43fKqL_x9U-3">
          <mxGeometry relative="1" as="geometry" />
        </mxCell>
        <mxCell id="4X0uVaDFzf43fKqL_x9U-21" value="&lt;p style=&quot;margin:0px;margin-top:4px;text-align:center;&quot;&gt;&lt;b&gt;RegistrationView&lt;/b&gt;&lt;/p&gt;&lt;hr size=&quot;1&quot;&gt;&lt;div style=&quot;height:2px;&quot;&gt;&lt;/div&gt;" style="verticalAlign=top;align=left;overflow=fill;fontSize=12;fontFamily=Helvetica;html=1;whiteSpace=wrap;" vertex="1" parent="1">
          <mxGeometry x="440" y="600" width="140" height="60" as="geometry" />
        </mxCell>
        <mxCell id="4X0uVaDFzf43fKqL_x9U-24" style="edgeStyle=orthogonalEdgeStyle;rounded=0;orthogonalLoop=1;jettySize=auto;html=1;exitX=1;exitY=0.25;exitDx=0;exitDy=0;entryX=1;entryY=0.25;entryDx=0;entryDy=0;" edge="1" parent="1" source="4X0uVaDFzf43fKqL_x9U-23" target="4X0uVaDFzf43fKqL_x9U-3">
          <mxGeometry relative="1" as="geometry" />
        </mxCell>
        <mxCell id="4X0uVaDFzf43fKqL_x9U-34" style="edgeStyle=orthogonalEdgeStyle;rounded=0;orthogonalLoop=1;jettySize=auto;html=1;exitX=0;exitY=0.25;exitDx=0;exitDy=0;entryX=0.75;entryY=1;entryDx=0;entryDy=0;" edge="1" parent="1" source="4X0uVaDFzf43fKqL_x9U-23" target="4X0uVaDFzf43fKqL_x9U-12">
          <mxGeometry relative="1" as="geometry">
            <Array as="points">
              <mxPoint x="420" y="685" />
              <mxPoint x="420" y="470" />
              <mxPoint x="400" y="470" />
            </Array>
          </mxGeometry>
        </mxCell>
        <mxCell id="4X0uVaDFzf43fKqL_x9U-23" value="&lt;p style=&quot;margin:0px;margin-top:4px;text-align:center;&quot;&gt;&lt;b&gt;AccountView&lt;/b&gt;&lt;/p&gt;&lt;hr size=&quot;1&quot;&gt;&lt;div style=&quot;height:2px;&quot;&gt;&lt;/div&gt;" style="verticalAlign=top;align=left;overflow=fill;fontSize=12;fontFamily=Helvetica;html=1;whiteSpace=wrap;" vertex="1" parent="1">
          <mxGeometry x="440" y="670" width="140" height="60" as="geometry" />
        </mxCell>
        <mxCell id="4X0uVaDFzf43fKqL_x9U-26" style="edgeStyle=orthogonalEdgeStyle;rounded=0;orthogonalLoop=1;jettySize=auto;html=1;exitX=0.75;exitY=0;exitDx=0;exitDy=0;entryX=0.5;entryY=1;entryDx=0;entryDy=0;" edge="1" parent="1" source="4X0uVaDFzf43fKqL_x9U-25" target="4X0uVaDFzf43fKqL_x9U-12">
          <mxGeometry relative="1" as="geometry">
            <Array as="points">
              <mxPoint x="365" y="555" />
              <mxPoint x="360" y="555" />
            </Array>
          </mxGeometry>
        </mxCell>
        <mxCell id="4X0uVaDFzf43fKqL_x9U-25" value="&lt;p style=&quot;margin:0px;margin-top:4px;text-align:center;&quot;&gt;&lt;br&gt;&lt;b&gt;RegistrationOrderView&lt;/b&gt;&lt;/p&gt;" style="verticalAlign=top;align=left;overflow=fill;fontSize=12;fontFamily=Helvetica;html=1;whiteSpace=wrap;" vertex="1" parent="1">
          <mxGeometry x="260" y="600" width="140" height="60" as="geometry" />
        </mxCell>
        <mxCell id="4X0uVaDFzf43fKqL_x9U-28" style="edgeStyle=orthogonalEdgeStyle;rounded=0;orthogonalLoop=1;jettySize=auto;html=1;exitX=0.5;exitY=0;exitDx=0;exitDy=0;entryX=0;entryY=0.5;entryDx=0;entryDy=0;" edge="1" parent="1" source="4X0uVaDFzf43fKqL_x9U-27" target="4X0uVaDFzf43fKqL_x9U-1">
          <mxGeometry relative="1" as="geometry">
            <Array as="points">
              <mxPoint x="110" y="430" />
              <mxPoint x="20" y="430" />
              <mxPoint x="20" y="70" />
            </Array>
          </mxGeometry>
        </mxCell>
        <mxCell id="4X0uVaDFzf43fKqL_x9U-31" style="edgeStyle=orthogonalEdgeStyle;rounded=0;orthogonalLoop=1;jettySize=auto;html=1;exitX=0.75;exitY=0;exitDx=0;exitDy=0;entryX=0.75;entryY=1;entryDx=0;entryDy=0;" edge="1" parent="1" source="4X0uVaDFzf43fKqL_x9U-27" target="4X0uVaDFzf43fKqL_x9U-10">
          <mxGeometry relative="1" as="geometry" />
        </mxCell>
        <mxCell id="4X0uVaDFzf43fKqL_x9U-27" value="&lt;p style=&quot;margin:0px;margin-top:4px;text-align:center;&quot;&gt;ProductService&lt;/p&gt;" style="verticalAlign=top;align=left;overflow=fill;fontSize=12;fontFamily=Helvetica;html=1;whiteSpace=wrap;" vertex="1" parent="1">
          <mxGeometry x="30" y="450" width="160" height="60" as="geometry" />
        </mxCell>
        <mxCell id="4X0uVaDFzf43fKqL_x9U-30" style="edgeStyle=orthogonalEdgeStyle;rounded=0;orthogonalLoop=1;jettySize=auto;html=1;exitX=0.5;exitY=0;exitDx=0;exitDy=0;entryX=0.5;entryY=1;entryDx=0;entryDy=0;" edge="1" parent="1" source="4X0uVaDFzf43fKqL_x9U-29" target="4X0uVaDFzf43fKqL_x9U-27">
          <mxGeometry relative="1" as="geometry" />
        </mxCell>
        <mxCell id="4X0uVaDFzf43fKqL_x9U-32" style="edgeStyle=orthogonalEdgeStyle;rounded=0;orthogonalLoop=1;jettySize=auto;html=1;exitX=1;exitY=0.5;exitDx=0;exitDy=0;entryX=0;entryY=0.5;entryDx=0;entryDy=0;" edge="1" parent="1" source="4X0uVaDFzf43fKqL_x9U-29" target="4X0uVaDFzf43fKqL_x9U-25">
          <mxGeometry relative="1" as="geometry" />
        </mxCell>
        <mxCell id="4X0uVaDFzf43fKqL_x9U-29" value="&lt;p style=&quot;margin:0px;margin-top:4px;text-align:center;&quot;&gt;ProductView&lt;/p&gt;" style="verticalAlign=top;align=left;overflow=fill;fontSize=12;fontFamily=Helvetica;html=1;whiteSpace=wrap;" vertex="1" parent="1">
          <mxGeometry x="40" y="600" width="140" height="60" as="geometry" />
        </mxCell>
      </root>
    </mxGraphModel>
  </diagram>
</mxfile>
